<svg height="573.37046" viewBox="0 0 703.81722 573.37046" width="703.81722" xmlns="http://www.w3.org/2000/svg"><g transform="translate(-248.09139 -163.31477)"><path d="m454.38905 703.63625a21.57359 21.57359 0 0 0 20.50932 5.17853c9.16409-2.60129 15.38339-10.86908 20.90329-18.633l16.33356-22.95923-13.76528 2.52422c-9.89941 1.81469-20.04352 3.72038-28.66453 8.91439s-15.526 14.46608-14.98 24.5152" fill="#e6e6e6"/><path d="m441.59444 734.5645c2.414-8.23128 4.842-16.57491 9.10417-24.07695 3.7855-6.662 8.95768-12.50745 15.78147-16.1419a35.24564 35.24564 0 0 1 11.605-3.77527c1.05845-.14935 1.23086 1.49784.1775 1.64745a33.507 33.507 0 0 0 -18.638 9.16558c-5.63682 5.51525-9.33425 12.62565-12.06784 19.94372-1.65522 4.42483-2.99064 8.95782-4.3197 13.49049a.85428.85428 0 0 1 -.94553.69314.83341.83341 0 0 1 -.69316-.94555z" fill="#f2f2f2"/><path d="m707.40533 403.05265a11.03878 11.03878 0 0 1 13.60532 10.0701l37.76434 10.616-15.409 13.34575-33.49929-12.12721a11.09861 11.09861 0 0 1 -2.46133-21.90467z" fill="#ffb7b7"/></g><path d="m556.357 561.294-11.008-.001-5.237-42.458 16.247.001z" fill="#ffb7b7"/><path d="m807.25547 735.279-35.49353-.00132v-.44893a13.81582 13.81582 0 0 1 13.81506-13.81487h.00088l21.67824.00087z" fill="#2f2e41" transform="translate(-248.09139 -163.31477)"/><path d="m620.859 561.294-11.008-.001-5.237-42.458 16.246.001z" fill="#ffb7b7"/><path d="m871.75722 735.279-35.49353-.00132v-.44893a13.81582 13.81582 0 0 1 13.81507-13.81485h.00088l21.67824.00087z" fill="#2f2e41" transform="translate(-248.09139 -163.31477)"/><path d="m547.363 317.603-16.215 112.314 4.04 118.334 24.349 1.939 7.614-106.123 19.382-59.174 11.395 84.352.468 79.006 25.143 1.939 8.769-166.1-6.45-72.236z" fill="#2f2e41"/><circle cx="594.26143" cy="141.57771" fill="#ffb7b7" r="25.65142"/><path d="m826.54186 344.49643-28.31857 142.66535s47.67807 13.68408 68.565 1.05146 11.52743-51.63056 11.52743-51.63056l-3.82537-66.35791-7.069-16.78062-5.99788-13.85207z" fill="#cbcbcb" transform="translate(-248.09139 -163.31477)"/><path d="m818.25272 445.76409 9.78259-104.03731-7.82346 5.71168-27.35385 8.88372-1.872 73.24592-19.13467 96.3199s13.67716 26.688 30.62732-17.46438z" fill="#2f2e41" transform="translate(-248.09139 -163.31477)"/><path d="m557.931 203.962-13.164-10.955-29.587 64.272-33.016-7.232-1.56 19.499 47.836 18.931 32.598-45.382z" fill="#2f2e41"/><path d="m609.144 259.677 3.687-84.672 13.568 10.507 24.231 6.754-3.553 67.411 5.113 104.6-25.404 8.046-7.131-66.003z" fill="#2f2e41"/><path d="m858.86576 491.15162a11.03874 11.03874 0 0 1 14.68847-8.41192l24.8965-30.31518 6.02883 19.47309-24.56643 25.80239a11.09861 11.09861 0 0 1 -21.04737-6.54836z" fill="#ffb7b7" transform="translate(-248.09139 -163.31477)"/><path d="m634.407 201.665 16.223-9.399 40.821 80.612-39.799 55.265-22.7-18.15 27.564-35.945-25.122-38.608z" fill="#2f2e41"/><path d="m866.47836 284.38547 1.24356-2.50292-6.25732-3.10891s-6.90282-11.23164-19.39374-8.0753-18.11076 5.04533-18.11076 5.04533l-6.2415 3.14051 3.13258 3.11681-5.61972 1.88907 3.75437 1.86533-4.36831 2.51082 2.35155 12.87131s3.90577-9.76239 11.4145-6.03172 21.24335-1.92852 21.24335-1.92852l11.93234 23.09286s2.46164-8.0952 6.85062-5.93665c.00006.00004 11.21274-17.85695-1.93152-25.94802z" fill="#2f2e41" transform="translate(-248.09139 -163.31477)"/><path d="m710.6639 322.01909h-.164l-94.07127 40.16883-128.70885 54.9597a4.15132 4.15132 0 0 1 -3.17971.01638l-132.78968-55.09084-96.38231-39.98853-.14722-.06554h-.16408a5.74247 5.74247 0 0 0 -5.736 5.73607v249.10893a5.74247 5.74247 0 0 0 5.736 5.73606h455.60712a5.74247 5.74247 0 0 0 5.736-5.73606v-249.10893a5.74247 5.74247 0 0 0 -5.736-5.73607z" fill="#fff" transform="translate(-248.09139 -163.31477)"/><path d="m711.07286 323.658a.81682.81682 0 0 1 -.46775-.14686l-226.62266-157.82653a4.10983 4.10983 0 0 0 -4.69419.008l-224.99021 157.81691a.8196.8196 0 0 1 -.94128-1.342l224.99045-157.81685a5.75429 5.75429 0 0 1 6.57193-.0108l226.62267 157.82607a.81961.81961 0 0 1 -.469 1.492z" fill="#3f3d56" transform="translate(-248.09139 -163.31477)"/><path d="m19.063 165.938 214.702-159.121 216.332 170.443-205.27 121.686-111.443-25.402z" fill="#e6e6e6"/><g transform="translate(-248.09139 -163.31477)"><path d="m390.88289 537.42153h-106.06826a4.95544 4.95544 0 1 1 -.01461-9.91086h106.08287a4.95544 4.95544 0 1 1 .01462 9.91086z" fill="#1abc9c"/><path d="m322.86948 516.11616h-38.05493a4.95544 4.95544 0 1 1 -.01461-9.91086h38.06954a4.95544 4.95544 0 0 1 .0147 9.91086z" fill="#1abc9c"/><path d="m484.8761 417.88073a6.19853 6.19853 0 0 1 -2.35111-.46056l-132.41349-54.94231v-171.97861a5.74278 5.74278 0 0 1 5.736-5.73606h254.02566a5.74277 5.74277 0 0 1 5.736 5.73606v172.09864l-.24889.10645-128.06192 54.689a6.24086 6.24086 0 0 1 -2.42225.48739z" fill="#1abc9c"/><path d="m709.43462 322.01909h-.164l-94.07136 40.16879-128.70885 54.9597a4.15132 4.15132 0 0 1 -3.17971.01638l-132.7896-55.0908-96.38231-39.98853-.14722-.06554h-.16416a5.74246 5.74246 0 0 0 -5.736 5.73607v249.10893a5.74245 5.74245 0 0 0 5.736 5.73606h455.60721a5.74245 5.74245 0 0 0 5.736-5.73606v-249.10893a5.74246 5.74246 0 0 0 -5.736-5.73607zm4.09721 254.845a4.0988 4.0988 0 0 1 -4.09721 4.09717h-455.60721a4.0988 4.0988 0 0 1 -4.09721-4.09717v-249.10893a4.10624 4.10624 0 0 1 3.94156-4.09718l96.84934 40.18518 132.15906 54.83677a5.835 5.835 0 0 0 4.45766-.02457l128.06144-54.68924 94.39936-40.30812a4.11048 4.11048 0 0 1 3.93313 4.09718z" fill="#3f3d56"/><g fill="#fff"><path d="m464.26159 249.04935h-90.13814a6.55551 6.55551 0 0 1 0-13.111h90.13814a6.55551 6.55551 0 0 1 0 13.111z"/><path d="m417.55363 221.18847h-43.43018a6.5555 6.5555 0 0 1 0-13.111h43.43018a6.5555 6.5555 0 0 1 0 13.111z"/><path d="m550.27673 314.60434h-137.66554a6.5555 6.5555 0 0 1 0-13.111h137.66554a6.5555 6.5555 0 0 1 0 13.111z"/><path d="m550.27673 344.92351h-137.66554a6.55551 6.55551 0 1 1 0-13.111h137.66554a6.55551 6.55551 0 1 1 0 13.111z"/></g><path d="m950.90861 736.31477h-263a1 1 0 0 1 0-2h263a1 1 0 0 1 0 2z" fill="#cbcbcb"/><path d="m491.90861 736.31477h-97a1 1 0 1 1 0-2h97a1 1 0 0 1 0 2z" fill="#cbcbcb"/><path d="m430.5752 705.39672a21.57362 21.57362 0 0 0 18.19364-10.79079c4.66332-8.30666 3.24284-18.55451 1.68179-27.95186l-4.60906-27.7969-7.9801 11.49663c-5.73938 8.26745-11.58811 16.772-14.03806 26.534s-.80744 21.20544 6.666 27.94567" fill="#e6e6e6"/><path d="m443.313 736.3484c-4.09285-7.53856-8.255-15.16664-10.52316-23.49146-2.01381-7.39306-2.46855-15.18494-.19313-22.57385a35.24556 35.24556 0 0 1 5.56614-10.86028c.64517-.85229 1.929.194 1.28759 1.04293a33.507 33.507 0 0 0 -6.75177 19.64175c-.10752 7.88543 2.2849 15.53429 5.50717 22.65072 1.94665 4.30459 4.19632 8.46035 6.45027 12.61139a.85428.85428 0 0 1 -.18164 1.15823.8334.8334 0 0 1 -1.15825-.18164z" fill="#f2f2f2"/></g></svg>