<svg height="514.94857" viewBox="0 0 761 514.94857" width="761" xmlns="http://www.w3.org/2000/svg"><path d="m13.55322 499.94857h727.44678v2h-727.44678z" fill="#3f3d56"/><circle cx="14" cy="500.94857" fill="#3f3d56" r="14"/><circle cx="747" cy="500.94857" fill="#3f3d56" r="14"/><g transform="translate(-219.5 -192.52571)"><path d="m628.22781 693.52571h-285a9.01016 9.01016 0 0 1 -9-9v-483a9.01016 9.01016 0 0 1 9-9h285a9.01016 9.01016 0 0 1 9 9v483a9.01016 9.01016 0 0 1 -9 9zm-285-499a7.00818 7.00818 0 0 0 -7 7v483a7.00818 7.00818 0 0 0 7 7h285a7.00818 7.00818 0 0 0 7-7v-483a7.00818 7.00818 0 0 0 -7-7z" fill="#3f3d56"/><path d="m524.72781 221.52571h-78a1 1 0 0 1 0-2h78a1 1 0 0 1 0 2z" fill="#3f3d56"/><path d="m595.22781 657.52571h-220a9.01016 9.01016 0 0 1 -9-9v-392a9.01016 9.01016 0 0 1 9-9h220a9.01016 9.01016 0 0 1 9 9v392a9.01016 9.01016 0 0 1 -9 9zm-220-408a7.00818 7.00818 0 0 0 -7 7v392a7.00818 7.00818 0 0 0 7 7h220a7.00818 7.00818 0 0 0 7-7v-392a7.00818 7.00818 0 0 0 -7-7z" fill="#3f3d56"/><path d="m639.72781 295.52571a4.50492 4.50492 0 0 1 -4.5-4.5v-19a4.5 4.5 0 0 1 9 0v19a4.50491 4.50491 0 0 1 -4.5 4.5zm0-26a2.50263 2.50263 0 0 0 -2.5 2.5v19a2.5 2.5 0 0 0 5 0v-19a2.50263 2.50263 0 0 0 -2.5-2.5z" fill="#3f3d56"/><path d="m639.72781 326.52571a4.50492 4.50492 0 0 1 -4.5-4.5v-19a4.5 4.5 0 0 1 9 0v19a4.50491 4.50491 0 0 1 -4.5 4.5zm0-26a2.50263 2.50263 0 0 0 -2.5 2.5v19a2.5 2.5 0 0 0 5 0v-19a2.50263 2.50263 0 0 0 -2.5-2.5z" fill="#3f3d56"/><path d="m560.22781 404.53334h-150a6 6 0 0 1 0-12h150a6 6 0 0 1 0 12z" fill="#ccc"/><path d="m560.22781 431.53334h-150a6 6 0 0 1 0-12h150a6 6 0 0 1 0 12z" fill="#ccc"/><path d="m560.22781 458.53334h-150a6 6 0 0 1 0-12h150a6 6 0 0 1 0 12z" fill="#ccc"/><path d="m506.83089 377.53334h-48.50537a11 11 0 0 1 0-22h48.50537a11 11 0 0 1 0 22z" fill="#1abc9c"/><path d="m439.19188 549.51809a21.78691 21.78691 0 1 1 21.78691-21.78691 21.81169 21.81169 0 0 1 -21.78691 21.78691zm0-41.28049a19.49356 19.49356 0 1 0 19.49355 19.49358 19.49356 19.49356 0 0 0 -19.49355-19.49358z" fill="#3f3d56"/><path d="m439.22929 535.2726a2.49532 2.49532 0 0 1 -1.76611-.7334l-8.00537-8.00586a2.49849 2.49849 0 0 1 .00048-3.53516l.41407-.415a2.505 2.505 0 0 1 3.53564 0l4.1499 4.14941a1.50069 1.50069 0 0 0 2.2876-.19727l17.69727-25.15039a2.50179 2.50179 0 0 1 3.4834-.60547l.48144.33887a2.49992 2.49992 0 0 1 .605 3.4834l-20.8374 29.60938a2.49287 2.49287 0 0 1 -1.83008 1.05175c-.07228.00681-.14406.00974-.21584.00974z" fill="#1abc9c"/><path d="m525.19287 549.51809a21.78691 21.78691 0 1 1 21.78691-21.78691 21.81169 21.81169 0 0 1 -21.78691 21.78691zm0-41.28049a19.49356 19.49356 0 1 0 19.49355 19.49358 19.49355 19.49355 0 0 0 -19.49355-19.49358z" fill="#3f3d56"/><path d="m532.17412 537.69643h-.00391a2.48 2.48 0 0 1 -1.7666-.73535l-4.14844-4.15918a1.53669 1.53669 0 0 0 -2.12451-.001l-4.14844 4.16113a2.483 2.483 0 0 1 -1.7666.73438h-.00391a2.48011 2.48011 0 0 1 -1.76513-.73047l-.41455-.41211a2.504 2.504 0 0 1 -.00586-3.53516l4.167-4.18066a1.50184 1.50184 0 0 0 -.00049-2.11719l-4.26168-4.27732a2.50234 2.50234 0 0 1 .00488-3.53418l.41553-.41407a2.48047 2.48047 0 0 1 1.76465-.72949h.00391a2.48 2.48 0 0 1 1.7666.73535l4.24414 4.25684a1.53861 1.53861 0 0 0 2.12451 0l4.24414-4.25684a2.48 2.48 0 0 1 1.7666-.73535h.00391a2.48011 2.48011 0 0 1 1.76513.73047l.415.41309a2.50234 2.50234 0 0 1 .00489 3.53418l-4.26221 4.27636a1.503 1.503 0 0 0 0 2.11817l4.1665 4.18066a2.50233 2.50233 0 0 1 -.00488 3.53418l-.41553.41406a2.48041 2.48041 0 0 1 -1.76465.7295z" fill="#ccc"/></g><path d="m601.462 488.504h12.785l6.085-49.313h-18.87z" fill="#a0616a"/><path d="m818.22287 677.37645h40.18057a0 0 0 0 1 0 0v15.52431a0 0 0 0 1 0 0h-24.87144a15.30912 15.30912 0 0 1 -15.30912-15.30912v-.21519a0 0 0 0 1 -.00001 0z" fill="#2f2e41" transform="matrix(-1 0 0 -1 1457.12631 1177.7515)"/><path d="m605.956 412.091-8.819 9.257-39.901-29.608 13.015-13.662z" fill="#a0616a"/><path d="m811.68239 612.252h24.87145a0 0 0 0 1 0 0v15.52431a0 0 0 0 1 0 0h-40.18057a0 0 0 0 1 0 0v-.21519a15.30912 15.30912 0 0 1 15.30912-15.30912z" fill="#2f2e41" transform="matrix(.68974188 -.72405534 .72405534 .68974188 -415.1101 591.00356)"/><path d="m914.44535 469.5151a10.48637 10.48637 0 0 0 -5.01685-15.27691l-50.19561-127.92895-19.56564 11.71485 55.76037 122.7283a10.54318 10.54318 0 0 0 19.01773 8.76271z" fill="#a0616a" transform="translate(-219.5 -192.52571)"/><path d="m723.92036 478.68484a10.48631 10.48631 0 0 0 9.417-13.03351l74.05094-115.76649-20.97339-8.9537-66.57334 117.21538a10.54318 10.54318 0 0 0 4.07879 20.53832z" fill="#a0616a" transform="translate(-219.5 -192.52571)"/><path d="m858.7388 456.70487-13.108 194.80558-31.3238-2.76387-6.449-143.72132-17.5046 61.72646-37.77291 2.76387 14.95051-122.02359z" fill="#2f2e41" transform="translate(-219.5 -192.52571)"/><path d="m784.82565 557.53879 5.52775 9.2129 38.6942 26.71746-27.63872 14.74064s-53.43485-29.48129-48.82839-38.6942z" fill="#2f2e41" transform="translate(-219.5 -192.52571)"/><path d="m886.16775 377.887-10.90412-30.72952a54.86113 54.86113 0 0 0 -28.383-31.312 78.50429 78.50429 0 0 0 -46.07422-2.522q-1.88085.46728-3.96826.98486a76.6947 76.6947 0 0 0 -29.08154 14.04834c-6.71948 5.29687-12.76441 12.00391-13.302 19.21777-.00366.01563-.00952.0293-.01319.04492-1.86108 8.15674-2.78222 50.53614-2.78222 50.53614h16.4158l-2.59644 57.12011.21-.41357s94.68287 17.918 94.68287 8.70508v-58.9624l1.94091-21.3501z" fill="#e6e6e6" transform="translate(-219.5 -192.52571)"/><circle cx="578.29072" cy="86.57722" fill="#a0616a" r="26.2388"/><path d="m795.55227 268.22194-22.06461-.07006c-2.56334-.00814-5.36182-.09872-7.31453-1.75935-2.94116-2.50121-2.44835-7.2205-.87334-10.74552 4.38586-9.816 15.27311-16.04986 26.02045-15.76119s20.92315 6.65 26.71335 15.70879 7.3541 20.4997 5.17342 31.02745a33.82812 33.82812 0 0 0 -27.66-19.28683z" fill="#2f2e41" transform="translate(-219.5 -192.52571)"/></svg>